<svg width="41" height="41" viewBox="0 0 41 41" fill="none" xmlns="http://www.w3.org/2000/svg">
<g id="facebook 1" clip-path="url(#clip0_13402_13602)">
<path id="Vector" d="M32.8745 0.0696801C34.9325 0.0696801 37.6012 -0.145117 39.0626 1.31623C40.5239 2.77758 40.3455 5.48273 40.3455 7.54072V32.4442C40.3455 34.5022 40.5239 36.9205 39.0626 38.3819C37.6012 39.8432 34.9325 39.9152 32.8745 39.9152H27.9976V24.4803H33.1598L33.9381 18.4619H27.9976V14.6226C27.9976 13.6542 28.2008 12.9278 28.6072 12.4436C29.0136 11.9594 29.8048 11.7172 30.9808 11.7172L34.1456 11.6913V6.32149C33.0561 6.16584 31.5169 6.08802 29.5281 6.08802C27.1761 6.08802 25.2954 6.77978 23.8859 8.16331C22.4764 9.54683 21.7717 11.5011 21.7717 14.026V18.4619H16.5835V24.4803H21.7717V39.9152H7.97101C5.91301 39.9152 3.27318 40.1671 1.81183 38.7058C0.350481 37.2444 0.499966 34.5022 0.499966 32.4442V7.54072C0.499966 5.48273 0.140845 3.12606 1.71928 1.54762C3.29772 -0.0308175 5.91301 0.0696801 7.97101 0.0696801H32.8745Z" fill="white"/>
</g>
<defs>
<clipPath id="clip0_13402_13602">
<rect width="40" height="40" fill="white" transform="translate(0.5 0.0698242)"/>
</clipPath>
</defs>
</svg>
