<svg width="41" height="41" viewBox="0 0 41 41" fill="none" xmlns="http://www.w3.org/2000/svg">
<g id="instagram-svgrepo-com 1">
<g clip-path="url(#clip0_13402_13596)">
<path id="Vector" d="M20.7698 16.309C18.5477 16.309 16.7383 18.1175 16.7383 20.3396C16.7383 22.5627 18.5477 24.3721 20.7698 24.3721C22.9929 24.3721 24.8014 22.5627 24.8014 20.3396C24.8014 18.1175 22.9929 16.309 20.7698 16.309ZM20.7698 16.309C18.5477 16.309 16.7383 18.1175 16.7383 20.3396C16.7383 22.5627 18.5477 24.3721 20.7698 24.3721C22.9929 24.3721 24.8014 22.5627 24.8014 20.3396C24.8014 18.1175 22.9929 16.309 20.7698 16.309ZM27.4861 9.73593H14.0544C11.9106 9.73593 10.1661 11.4804 10.1661 13.6243V27.0559C10.1661 29.1998 11.9106 30.9443 14.0544 30.9443H27.4861C29.63 30.9443 31.3744 29.1998 31.3744 27.0559V13.6243C31.3744 11.4804 29.63 9.73593 27.4861 9.73593ZM20.7698 27.3219C16.9206 27.3219 13.7885 24.1897 13.7885 20.3396C13.7885 16.4905 16.9206 13.3583 20.7698 13.3583C24.6199 13.3583 27.7521 16.4905 27.7521 20.3396C27.7521 24.1897 24.6199 27.3219 20.7698 27.3219ZM27.9763 14.8021C27.0653 14.8021 26.3243 14.061 26.3243 13.1501C26.3243 12.2392 27.0653 11.4982 27.9763 11.4982C28.8872 11.4982 29.6282 12.2392 29.6282 13.1501C29.6282 14.061 28.8872 14.8021 27.9763 14.8021ZM20.7698 16.309C18.5477 16.309 16.7383 18.1175 16.7383 20.3396C16.7383 22.5627 18.5477 24.3721 20.7698 24.3721C22.9929 24.3721 24.8014 22.5627 24.8014 20.3396C24.8014 18.1175 22.9929 16.309 20.7698 16.309ZM27.4861 9.73593H14.0544C11.9106 9.73593 10.1661 11.4804 10.1661 13.6243V27.0559C10.1661 29.1998 11.9106 30.9443 14.0544 30.9443H27.4861C29.63 30.9443 31.3744 29.1998 31.3744 27.0559V13.6243C31.3744 11.4804 29.63 9.73593 27.4861 9.73593ZM20.7698 27.3219C16.9206 27.3219 13.7885 24.1897 13.7885 20.3396C13.7885 16.4905 16.9206 13.3583 20.7698 13.3583C24.6199 13.3583 27.7521 16.4905 27.7521 20.3396C27.7521 24.1897 24.6199 27.3219 20.7698 27.3219ZM27.9763 14.8021C27.0653 14.8021 26.3243 14.061 26.3243 13.1501C26.3243 12.2392 27.0653 11.4982 27.9763 11.4982C28.8872 11.4982 29.6282 12.2392 29.6282 13.1501C29.6282 14.061 28.8872 14.8021 27.9763 14.8021ZM20.7698 16.309C18.5477 16.309 16.7383 18.1175 16.7383 20.3396C16.7383 22.5627 18.5477 24.3721 20.7698 24.3721C22.9929 24.3721 24.8014 22.5627 24.8014 20.3396C24.8014 18.1175 22.9929 16.309 20.7698 16.309ZM0.5 0.0698242V40.6104H41.0405V0.0698242H0.5ZM34.3243 27.0559C34.3243 30.8268 31.257 33.8941 27.4861 33.8941H14.0544C10.2835 33.8941 7.21628 30.8268 7.21628 27.0559V13.6243C7.21628 9.85335 10.2835 6.78611 14.0544 6.78611H27.4861C31.257 6.78611 34.3243 9.85335 34.3243 13.6243V27.0559ZM27.4861 9.73593H14.0544C11.9106 9.73593 10.1661 11.4804 10.1661 13.6243V27.0559C10.1661 29.1998 11.9106 30.9443 14.0544 30.9443H27.4861C29.63 30.9443 31.3744 29.1998 31.3744 27.0559V13.6243C31.3744 11.4804 29.63 9.73593 27.4861 9.73593ZM20.7698 27.3219C16.9206 27.3219 13.7885 24.1897 13.7885 20.3396C13.7885 16.4905 16.9206 13.3583 20.7698 13.3583C24.6199 13.3583 27.7521 16.4905 27.7521 20.3396C27.7521 24.1897 24.6199 27.3219 20.7698 27.3219ZM27.9763 14.8021C27.0653 14.8021 26.3243 14.061 26.3243 13.1501C26.3243 12.2392 27.0653 11.4982 27.9763 11.4982C28.8872 11.4982 29.6282 12.2392 29.6282 13.1501C29.6282 14.061 28.8872 14.8021 27.9763 14.8021ZM20.7698 16.309C18.5477 16.309 16.7383 18.1175 16.7383 20.3396C16.7383 22.5627 18.5477 24.3721 20.7698 24.3721C22.9929 24.3721 24.8014 22.5627 24.8014 20.3396C24.8014 18.1175 22.9929 16.309 20.7698 16.309ZM20.7698 16.309C18.5477 16.309 16.7383 18.1175 16.7383 20.3396C16.7383 22.5627 18.5477 24.3721 20.7698 24.3721C22.9929 24.3721 24.8014 22.5627 24.8014 20.3396C24.8014 18.1175 22.9929 16.309 20.7698 16.309ZM20.7698 16.309C18.5477 16.309 16.7383 18.1175 16.7383 20.3396C16.7383 22.5627 18.5477 24.3721 20.7698 24.3721C22.9929 24.3721 24.8014 22.5627 24.8014 20.3396C24.8014 18.1175 22.9929 16.309 20.7698 16.309ZM27.4861 9.73593H14.0544C11.9106 9.73593 10.1661 11.4804 10.1661 13.6243V27.0559C10.1661 29.1998 11.9106 30.9443 14.0544 30.9443H27.4861C29.63 30.9443 31.3744 29.1998 31.3744 27.0559V13.6243C31.3744 11.4804 29.63 9.73593 27.4861 9.73593ZM20.7698 27.3219C16.9206 27.3219 13.7885 24.1897 13.7885 20.3396C13.7885 16.4905 16.9206 13.3583 20.7698 13.3583C24.6199 13.3583 27.7521 16.4905 27.7521 20.3396C27.7521 24.1897 24.6199 27.3219 20.7698 27.3219ZM27.9763 14.8021C27.0653 14.8021 26.3243 14.061 26.3243 13.1501C26.3243 12.2392 27.0653 11.4982 27.9763 11.4982C28.8872 11.4982 29.6282 12.2392 29.6282 13.1501C29.6282 14.061 28.8872 14.8021 27.9763 14.8021ZM20.7698 16.309C18.5477 16.309 16.7383 18.1175 16.7383 20.3396C16.7383 22.5627 18.5477 24.3721 20.7698 24.3721C22.9929 24.3721 24.8014 22.5627 24.8014 20.3396C24.8014 18.1175 22.9929 16.309 20.7698 16.309ZM20.7698 16.309C18.5477 16.309 16.7383 18.1175 16.7383 20.3396C16.7383 22.5627 18.5477 24.3721 20.7698 24.3721C22.9929 24.3721 24.8014 22.5627 24.8014 20.3396C24.8014 18.1175 22.9929 16.309 20.7698 16.309ZM20.7698 16.309C18.5477 16.309 16.7383 18.1175 16.7383 20.3396C16.7383 22.5627 18.5477 24.3721 20.7698 24.3721C22.9929 24.3721 24.8014 22.5627 24.8014 20.3396C24.8014 18.1175 22.9929 16.309 20.7698 16.309ZM27.4861 9.73593H14.0544C11.9106 9.73593 10.1661 11.4804 10.1661 13.6243V27.0559C10.1661 29.1998 11.9106 30.9443 14.0544 30.9443H27.4861C29.63 30.9443 31.3744 29.1998 31.3744 27.0559V13.6243C31.3744 11.4804 29.63 9.73593 27.4861 9.73593ZM20.7698 27.3219C16.9206 27.3219 13.7885 24.1897 13.7885 20.3396C13.7885 16.4905 16.9206 13.3583 20.7698 13.3583C24.6199 13.3583 27.7521 16.4905 27.7521 20.3396C27.7521 24.1897 24.6199 27.3219 20.7698 27.3219ZM27.9763 14.8021C27.0653 14.8021 26.3243 14.061 26.3243 13.1501C26.3243 12.2392 27.0653 11.4982 27.9763 11.4982C28.8872 11.4982 29.6282 12.2392 29.6282 13.1501C29.6282 14.061 28.8872 14.8021 27.9763 14.8021ZM20.7698 16.309C18.5477 16.309 16.7383 18.1175 16.7383 20.3396C16.7383 22.5627 18.5477 24.3721 20.7698 24.3721C22.9929 24.3721 24.8014 22.5627 24.8014 20.3396C24.8014 18.1175 22.9929 16.309 20.7698 16.309Z" fill="white"/>
</g>
</g>
<defs>
<clipPath id="clip0_13402_13596">
<rect x="0.5" y="0.0698242" width="40.067" height="40.067" rx="4.48651" fill="white"/>
</clipPath>
</defs>
</svg>
