<svg width="41" height="41" viewBox="0 0 41 41" fill="none" xmlns="http://www.w3.org/2000/svg">
<g id="SocialMediaIcons">
<path id="Vector" d="M36.5 0.0698242H4.5C2.3 0.0698242 0.5 1.86982 0.5 4.06982V36.0698C0.5 38.2698 2.3 40.0698 4.5 40.0698H36.5C38.7 40.0698 40.5 38.2698 40.5 36.0698V4.06982C40.5 1.86982 38.7 0.0698242 36.5 0.0698242ZM12.5 34.0698H6.5V16.0698H12.5V34.0698ZM9.5 12.6698C7.5 12.6698 5.9 11.0698 5.9 9.06982C5.9 7.06982 7.5 5.46982 9.5 5.46982C11.5 5.46982 13.1 7.06982 13.1 9.06982C13.1 11.0698 11.5 12.6698 9.5 12.6698ZM34.5 34.0698H28.5V23.4698C28.5 21.8699 27.1 20.4698 25.5 20.4698C23.9 20.4698 22.5 21.8699 22.5 23.4698V34.0698H16.5V16.0698H22.5V18.4698C23.5 16.8698 25.7 15.6698 27.5 15.6698C31.3 15.6698 34.5 18.8698 34.5 22.6698V34.0698Z" fill="white"/>
</g>
</svg>
