<svg width="41" height="41" viewBox="0 0 41 41" fill="none" xmlns="http://www.w3.org/2000/svg">
<g id="SocialMediaIcons">
<path id="Vector" d="M38.9878 13.4441C38.9878 4.84413 33.3529 2.32499 33.3529 2.32499C30.5127 1.02082 25.6349 0.471798 20.5669 0.430176H20.4421C15.374 0.471798 10.5002 1.02082 7.65802 2.32499C7.65802 2.32499 2.02314 4.84612 2.02314 13.4441C2.02314 15.4123 1.98548 17.7669 2.04692 20.2642C2.25107 28.674 3.58894 36.9628 11.3644 39.0201C14.9499 39.9695 18.028 40.1677 20.5055 40.0309C25.0007 39.7812 27.5238 38.4275 27.5238 38.4275L27.3752 35.1651C27.3752 35.1651 24.1623 36.1779 20.555 36.055C16.9795 35.9321 13.2077 35.6705 12.6289 31.2803C12.5743 30.8723 12.5478 30.4611 12.5496 30.0495C12.5496 30.0495 16.0578 30.9077 20.5055 31.1118C23.2248 31.2367 25.7737 30.9533 28.3642 30.6441C33.3311 30.0515 37.6559 26.9912 38.199 24.1946C39.0592 19.7886 38.9878 13.4441 38.9878 13.4441ZM32.3421 24.5236H28.2175V14.4173C28.2175 12.2866 27.3216 11.2064 25.5279 11.2064C23.5459 11.2064 22.5529 12.4888 22.5529 15.0258V20.5576H18.4521V15.0258C18.4521 12.4888 17.4591 11.2064 15.4751 11.2064C13.6814 11.2064 12.7855 12.2886 12.7855 14.4173V24.5236H8.66093V14.1121C8.66093 11.9834 9.20202 10.2927 10.2921 9.04205C11.414 7.7914 12.8826 7.14922 14.7081 7.14922C16.8189 7.14922 18.4184 7.95987 19.4748 9.58314L20.5015 11.3055L21.5302 9.58314C22.5866 7.95987 24.1861 7.14922 26.2969 7.14922C28.1204 7.14922 29.5911 7.7914 30.7129 9.04205C31.801 10.2927 32.3421 11.9834 32.3421 14.1121V24.5236Z" fill="white"/>
</g>
</svg>
