<svg width="42" height="42" viewBox="0 0 42 42" fill="none" xmlns="http://www.w3.org/2000/svg">
<g id="SocialMediaIcons">
<path id="Vector" fill-rule="evenodd" clip-rule="evenodd" d="M5.28331 0.529297C2.89505 0.529297 0.958984 2.46536 0.958984 4.85362V36.7455C0.958984 39.1338 2.89505 41.0698 5.28331 41.0698H37.1752C39.5635 41.0698 41.4995 39.1338 41.4995 36.7455V4.85362C41.4995 2.46536 39.5635 0.529297 37.1752 0.529297H5.28331ZM30.9363 11.351C31.1385 11.4826 31.3471 11.604 31.5614 11.7148C32.9557 12.4099 34.3175 12.6216 34.9882 12.5488V17.9619C34.9882 17.9619 33.074 17.8825 31.6533 17.5055C29.673 16.9757 28.4038 16.1622 28.4038 16.1622C28.4038 16.1622 27.5227 15.5794 27.4566 15.5398V26.7257C27.4566 27.3475 27.2919 28.9031 26.7985 30.2002C26.366 31.3093 25.7478 32.3366 24.9703 33.2381C24.9703 33.2381 23.7533 34.7468 21.6156 35.7594C19.8338 36.6039 18.2487 36.6501 17.6191 36.6685C17.5677 36.67 17.5226 36.6713 17.4843 36.6728C17.4843 36.6728 14.5575 36.7906 11.9178 34.9968L11.9046 34.9836V34.9968C11.0121 34.374 10.2163 33.6232 9.54265 32.7685C8.70727 31.7029 8.19467 30.4389 8.06238 30.0685V30.0553C7.85205 29.4263 7.41088 27.9044 7.47703 26.4354C7.58219 23.8472 8.45064 22.2525 8.68081 21.8557C9.28567 20.7674 10.0758 19.7931 11.0156 18.9765C12.0882 18.0773 13.3355 17.4102 14.6788 17.0173C16.0221 16.6243 17.4323 16.514 18.8204 16.6933L18.8138 22.2452C18.3565 22.0963 17.8786 22.0206 17.3977 22.021C14.8572 22.021 12.7982 24.0926 12.7982 26.651C12.7982 29.2094 14.8572 31.2809 17.3977 31.2809C18.1887 31.282 18.9663 31.0768 19.6538 30.6857C20.3135 30.3109 20.8709 29.7797 21.2771 29.1389C21.6833 28.4981 21.9259 27.7673 21.9833 27.0108V26.9989C21.9866 26.983 21.9866 26.9671 21.9866 26.9519C21.9873 26.9399 21.9881 26.9283 21.9888 26.9171C21.9904 26.8939 21.9919 26.8719 21.9919 26.8487C22.0038 26.5723 22.0038 26.2925 22.0038 26.0094V4.92459H27.4566C27.448 4.92459 27.3911 5.44712 27.5287 6.25471H27.5221C27.6868 7.22767 28.1339 8.61731 29.3311 9.98712C29.8095 10.5044 30.3485 10.9624 30.9363 11.351Z" fill="white"/>
</g>
</svg>
