<svg width="40" height="40" viewBox="0 0 40 40" fill="none" xmlns="http://www.w3.org/2000/svg">
<g id="yt" clip-path="url(#clip0_13402_13599)">
<path id="Vector" fill-rule="evenodd" clip-rule="evenodd" d="M4.712 0.253418C2.38578 0.253418 0.5 2.1392 0.5 4.46542V35.529C0.5 37.8552 2.38578 39.741 4.712 39.741H35.7755C38.1018 39.741 39.9875 37.8552 39.9875 35.529V4.46542C39.9875 2.1392 38.1018 0.253418 35.7755 0.253418H4.712ZM9.82186 11.0403C11.9104 10.4976 20.2316 10.4976 20.2316 10.4976C20.2316 10.4976 28.5692 10.4976 30.6577 11.0732C31.7924 11.3692 32.6968 12.2735 32.9928 13.4082C33.5684 15.4967 33.5519 19.8383 33.5519 19.8383C33.5519 19.8383 33.5519 24.1634 32.9928 26.2355C32.6968 27.3866 31.7924 28.2746 30.6577 28.587C28.5692 29.1297 20.2316 29.1297 20.2316 29.1297C20.2316 29.1297 11.9268 29.1297 9.82186 28.5706C8.68716 28.2581 7.7828 27.3537 7.47035 26.219C6.92766 24.1634 6.92765 19.8219 6.92765 19.8219C6.92765 19.8219 6.92766 15.4967 7.47035 13.4082C7.7828 12.2735 8.7036 11.3527 9.82186 11.0403ZM17.5839 15.8258L24.5073 19.8219L17.5839 23.8015V15.8258Z" fill="white"/>
</g>
<defs>
<clipPath id="clip0_13402_13599">
<rect width="39.4875" height="39.4875" fill="white" transform="translate(0.5 0.253906)"/>
</clipPath>
</defs>
</svg>
