<svg width="17" height="17" viewBox="0 0 17 17" fill="none" xmlns="http://www.w3.org/2000/svg">
<path fill-rule="evenodd" clip-rule="evenodd" d="M12.7777 12.7354C12.6496 12.8372 12.5821 12.9066 12.4996 13.0491C12.2152 13.541 12.3859 14.1785 12.8765 14.4616C13.3671 14.7447 14.0027 14.581 14.2915 14.0816C14.5759 13.5904 14.4052 12.9522 13.914 12.6691C13.5602 12.4647 13.1109 12.4885 12.7771 12.7347L12.7777 12.7354ZM11.7671 2.14353C12.6665 1.24415 14.1246 1.24415 15.0246 2.14353C15.9239 3.0429 15.9239 4.50161 15.0246 5.40097C14.2889 6.1366 13.1652 6.27909 12.279 5.78722L11.2714 6.79473C11.7377 7.6341 11.6308 8.67537 11.0121 9.40289L12.5552 11.4216C13.8346 10.9204 15.2664 11.6497 15.6202 12.9697C15.9489 14.1966 15.2164 15.4616 13.9914 15.7897C12.7651 16.1185 11.4995 15.3847 11.1714 14.1609C10.9826 13.4572 11.1376 12.7472 11.5489 12.1928L9.95449 10.1065C9.24199 10.3328 8.47074 10.1978 7.88201 9.75903L5.74761 11.3902C6.08449 12.2484 5.87448 13.2178 5.23135 13.8603C4.33197 14.7597 2.87391 14.7597 1.97391 13.8603C1.07453 12.9609 1.07453 11.5022 1.97391 10.6029C2.78141 9.79537 4.06079 9.70037 4.97711 10.3835L7.11151 8.7523C7.01401 8.50292 6.95776 8.23292 6.95339 7.95042L5.57588 7.58105C5.37214 7.9198 5.08588 8.19542 4.75151 8.38855C3.64777 9.02605 2.24655 8.64918 1.60895 7.54481C0.972074 6.44106 1.34708 5.04049 2.4502 4.40225C3.55332 3.76537 4.95708 4.141 5.59516 5.24349C5.78828 5.57786 5.89766 5.95975 5.90454 6.35537L7.28142 6.72412C7.91892 5.66474 9.28574 5.291 10.3733 5.89474L11.3808 4.88724C10.8889 4.00098 11.0314 2.87732 11.767 2.14164L11.7671 2.14353ZM4.33271 11.5022C3.92959 11.0991 3.27521 11.0991 2.87209 11.5022C2.46897 11.9054 2.46897 12.5598 2.87209 12.9629C3.27521 13.366 3.92959 13.366 4.33271 12.9629C4.73583 12.5598 4.73583 11.9054 4.33271 11.5022ZM3.33458 7.39473C3.87583 7.5466 4.45084 7.2241 4.60084 6.6641C4.67521 6.38722 4.63146 6.10722 4.49959 5.87911C4.20897 5.38161 3.57333 5.21537 3.08396 5.50098C2.31645 5.9441 2.41458 7.1373 3.33396 7.39474L3.33458 7.39473ZM14.4283 3.77217C14.4283 3.20154 13.9665 2.73967 13.3958 2.73967C12.8252 2.73967 12.3634 3.20217 12.3634 3.77217C12.3634 4.34279 12.8258 4.80466 13.3958 4.80466C13.9665 4.80466 14.4283 4.34217 14.4283 3.77217ZM9.98706 8.64225C10.3902 8.23913 10.3902 7.58474 9.98706 7.18162C9.58394 6.7785 8.92956 6.7785 8.52644 7.18162C8.12332 7.58474 8.12332 8.23913 8.52644 8.64225C8.92956 9.04537 9.58394 9.04537 9.98706 8.64225Z" fill="#1E1E1E"/>
</svg>
